<?xml version="1.0" encoding="UTF-8" standalone="no"?>
<!-- Created with Inkscape (http://www.inkscape.org/) -->

<svg
   xmlns:dc="http://purl.org/dc/elements/1.1/"
   xmlns:cc="http://creativecommons.org/ns#"
   xmlns:rdf="http://www.w3.org/1999/02/22-rdf-syntax-ns#"
   xmlns:svg="http://www.w3.org/2000/svg"
   xmlns="http://www.w3.org/2000/svg"
   xmlns:sodipodi="http://sodipodi.sourceforge.net/DTD/sodipodi-0.dtd"
   xmlns:inkscape="http://www.inkscape.org/namespaces/inkscape"
   width="210mm"
   height="297mm"
   viewBox="0 0 210 297"
   version="1.1"
   id="svg8"
   inkscape:version="0.92.0 r15299"
   sodipodi:docname="arrow.svg">
  <defs
     id="defs2" />
  <sodipodi:namedview
     id="base"
     pagecolor="#ffffff"
     bordercolor="#666666"
     borderopacity="1.0"
     inkscape:pageopacity="0.0"
     inkscape:pageshadow="2"
     inkscape:zoom="0.7"
     inkscape:cx="344.82457"
     inkscape:cy="542.83127"
     inkscape:document-units="mm"
     inkscape:current-layer="layer1"
     showgrid="false"
     inkscape:window-width="1920"
     inkscape:window-height="1017"
     inkscape:window-x="-8"
     inkscape:window-y="-8"
     inkscape:window-maximized="1" />
  <metadata
     id="metadata5">
    <rdf:RDF>
      <cc:Work
         rdf:about="">
        <dc:format>image/svg+xml</dc:format>
        <dc:type
           rdf:resource="http://purl.org/dc/dcmitype/StillImage" />
        <dc:title></dc:title>
      </cc:Work>
    </rdf:RDF>
  </metadata>
  <g
     inkscape:label="Camada 1"
     inkscape:groupmode="layer"
     id="layer1">
    <text
       xml:space="preserve"
       style="font-style:normal;font-weight:normal;font-size:19.7555542px;line-height:0px;font-family:sans-serif;letter-spacing:0px;word-spacing:0px;fill:#000000;fill-opacity:1;stroke:none;stroke-width:0.26458332"
       x="53.672619"
       y="172.64583"
       id="text4487"><tspan
         sodipodi:role="line"
         id="tspan4485"
         x="53.672619"
         y="178.3222"
         style="stroke-width:0.26458332" /></text>
    <path
       style="opacity:1;fill:#5d6fb7;fill-opacity:1;stroke:none;stroke-width:1;stroke-miterlimit:4;stroke-dasharray:none;stroke-dashoffset:0;stroke-opacity:1"
       id="path4489"
       d="m 70.289329,176.94395 c 2.417122,0.15722 4.841068,0.19036 7.260966,0.0958 2.071581,-0.11551 4.574778,-0.33228 6.542608,-1.0521 0.3369,-0.12323 0.651698,-0.30006 0.977546,-0.45009 0.315653,-0.1623 0.632679,-0.32195 0.946959,-0.4869 0.328502,-0.1724 0.660006,-0.33964 0.981319,-0.5251 0.329787,-0.19035 1.301668,-0.79056 0.970997,-0.60175 -20.173339,11.51906 -13.421241,8.00779 -9.151594,5.04594 2.682434,-1.79897 4.607828,-4.36625 6.411704,-6.99221 1.480801,-2.33426 2.855936,-4.73531 4.075004,-7.21645 0.513188,-1.01776 0.973849,-2.06138 1.415066,-3.11207 0.477229,-0.85292 0.697632,-1.81048 1.08649,-2.69933 0,0 13.584676,-6.1384 13.584676,-6.1384 v 0 c -0.1448,0.24609 -0.32308,0.4747 -0.4384,0.7359 -0.27691,0.62718 -0.36754,1.32385 -0.67706,1.93713 -0.57482,1.06456 -0.93801,2.23816 -1.58278,3.27031 -1.61393,2.74679 0.72662,-1.26916 -1.09064,1.97503 -1.0419,1.85999 -2.191624,3.65782 -3.25872,5.50314 -1.707229,2.69309 -3.485928,5.43561 -6.046994,7.40096 -4.922152,3.74013 -10.006859,6.18102 -15.673914,9.47437 -0.515974,0.29986 -1.520576,0.80171 -2.068795,1.04089 -0.329322,0.14368 -0.668211,0.26434 -1.002316,0.39651 -2.485255,0.71207 -5.058447,0.9686 -7.640698,1.00278 -2.573642,0.0501 -5.150226,0.0275 -7.720732,0.18626 0,0 12.099308,-8.79066 12.099308,-8.79066 z"
       inkscape:connector-curvature="0" />
    <path
       style="opacity:1;fill:#5d6fb7;fill-opacity:1;stroke:none;stroke-width:1;stroke-miterlimit:4;stroke-dasharray:none;stroke-dashoffset:0;stroke-opacity:1"
       id="path4491"
       d="m 92.100637,155.8366 c 1.742072,-0.84985 3.590517,-1.46284 5.321938,-2.33847 0.490598,-0.24811 0.961405,-0.53356 1.442106,-0.80034 0.500901,-0.28471 1.001799,-0.56942 1.502699,-0.85412 -3.590468,2.06707 -7.173395,4.1473 -10.771405,6.20122 -0.468011,0.26717 0.925208,-0.55305 1.380929,-0.84068 1.141875,-0.72069 2.228937,-1.50942 3.31551,-2.30932 1.241665,-1.01985 2.524881,-2.0751 3.502654,-3.364 7.592092,-4.30242 14.587432,-12.12512 14.149472,-3.37184 -0.16458,2.03502 -0.27665,4.07352 -0.29519,6.11518 -0.01,1.48083 0.0151,2.96157 0.0494,4.44194 -0.008,0.98071 0.0104,1.95072 0.14047,2.92313 0.0414,0.4173 0.19642,0.80221 0.34316,1.1901 0,0 -13.033905,7.24493 -13.033905,7.24493 v 0 c -0.185817,-0.49345 -0.402299,-0.97946 -0.492072,-1.50279 -0.129802,-1.03537 -0.300209,-2.05962 -0.204613,-3.10815 0.03867,-1.52146 0.07812,-3.04284 0.126024,-4.56403 0.06789,-2.03369 0.08763,-4.06898 0.190476,-6.10158 0.0181,-0.45343 0.06564,-0.90684 0.0513,-1.36041 -0.0048,-0.15077 -0.04406,-0.29879 -0.05392,-0.44931 -0.0019,-0.0265 0.0039,-0.099 0.01942,-0.0774 0.05769,0.0803 0.03261,0.31757 0.119891,0.27119 4.305299,-2.28793 8.516309,-4.74902 12.774459,-7.12353 -0.8018,0.2701 -0.89183,0.60259 -1.48348,1.18896 -0.77978,0.77282 -1.59373,1.51444 -2.38251,2.27842 -6.29417,4.70727 -13.196794,8.47924 -20.142463,12.16442 -2.403605,1.20094 -4.861764,2.30752 -7.356631,3.30317 0,0 11.786261,-9.1567 11.786261,-9.1567 z"
       inkscape:connector-curvature="0" />
    <path
       style="opacity:1;fill:#5d6fb7;fill-opacity:1;stroke:none;stroke-width:1;stroke-miterlimit:4;stroke-dasharray:none;stroke-dashoffset:0;stroke-opacity:1"
       id="path4493"
       d="m 104.54948,151.51968 c -0.0819,0.68451 -0.0369,1.36915 0.0112,2.05334 0,0 -13.114468,6.82134 -13.114468,6.82134 v 0 c -0.06804,-0.69833 -0.164941,-1.39354 -0.204038,-2.09427 0,0 13.307296,-6.78041 13.307296,-6.78041 z"
       inkscape:connector-curvature="0" />
  </g>
</svg>
