<?xml version="1.0" encoding="UTF-8" standalone="no"?>
<svg
   xmlns:dc="http://purl.org/dc/elements/1.1/"
   xmlns:cc="http://creativecommons.org/ns#"
   xmlns:rdf="http://www.w3.org/1999/02/22-rdf-syntax-ns#"
   xmlns:svg="http://www.w3.org/2000/svg"
   xmlns="http://www.w3.org/2000/svg"
   xmlns:sodipodi="http://sodipodi.sourceforge.net/DTD/sodipodi-0.dtd"
   xmlns:inkscape="http://www.inkscape.org/namespaces/inkscape"
   version="1.1"
   x="0px"
   y="0px"
   viewBox="0 0 52 65"
   style="enable-background:new 0 0 52 52;"
   xml:space="preserve"
   id="svg36"
   sodipodi:docname="noun_Floppy_1163485.svg"
   inkscape:version="0.92.0 r15299"><metadata
     id="metadata42"><rdf:RDF><cc:Work
         rdf:about=""><dc:format>image/svg+xml</dc:format><dc:type
           rdf:resource="http://purl.org/dc/dcmitype/StillImage" /></cc:Work></rdf:RDF></metadata><defs
     id="defs40" /><sodipodi:namedview
     pagecolor="#ffffff"
     bordercolor="#666666"
     borderopacity="1"
     objecttolerance="10"
     gridtolerance="10"
     guidetolerance="10"
     inkscape:pageopacity="0"
     inkscape:pageshadow="2"
     inkscape:window-width="1920"
     inkscape:window-height="1017"
     id="namedview38"
     showgrid="false"
     inkscape:zoom="7.2615385"
     inkscape:cx="39.191018"
     inkscape:cy="42.783509"
     inkscape:window-x="-8"
     inkscape:window-y="-8"
     inkscape:window-maximized="1"
     inkscape:current-layer="g30" /><style
     type="text/css"
     id="style2">
	.st0{fill:none;stroke:#000000;stroke-width:2;stroke-linecap:round;stroke-linejoin:round;stroke-miterlimit:10;}
	.st1{fill:#FFFFFF;}
	.st2{fill:#2A3D4F;stroke:#000000;stroke-width:0;stroke-miterlimit:10;}
	.st3{fill:none;stroke:#000000;stroke-width:2;stroke-miterlimit:10;}
</style><g
     id="g30"><g
       id="g6"
       style="fill:#5d6fb7"><path
         d="M46,50H6c-2.2,0-4-1.8-4-4V6c0-2.2,1.8-4,4-4h34.4l9.6,9.5V46C50,48.2,48.2,50,46,50z M6,4C4.9,4,4,4.9,4,6v40    c0,1.1,0.9,2,2,2h40c1.1,0,2-0.9,2-2V12.3L39.6,4H6z"
         id="path4"
         style="fill:#5d6fb7" /></g><g
       id="g10"
       style="fill:#5d6fb7"><path
         d="M36,20H16c-1.7,0-3-1.3-3-3V2h26v15C39,18.7,37.7,20,36,20z M15,4v13c0,0.6,0.4,1,1,1h20c0.6,0,1-0.4,1-1V4H15z"
         id="path8"
         style="fill:#5d6fb7" /></g><g
       id="g14"
       style="fill:#5d6fb7"><path
         d="M41,50H11V34c0-2.2,1.8-4,4-4h22c2.2,0,4,1.8,4,4V50z M13,48h26V34c0-1.1-0.9-2-2-2H15c-1.1,0-2,0.9-2,2V48z"
         id="path12"
         style="fill:#5d6fb7" /></g><g
       id="g18"
       style="fill:#5d6fb7"><path
         d="M33,16h-6c-0.6,0-1-0.4-1-1V7c0-0.6,0.4-1,1-1h6c0.6,0,1,0.4,1,1v8C34,15.6,33.6,16,33,16z M28,14h4V8h-4V14z"
         id="path16"
         style="fill:#5d6fb7" /></g><g
       id="g28"
       style="fill:#5d6fb7"><g
         id="g22"
         style="fill:#5d6fb7"><path
           d="M34,38H18c-0.6,0-1-0.4-1-1s0.4-1,1-1h16c0.6,0,1,0.4,1,1S34.6,38,34,38z"
           id="path20"
           style="fill:#5d6fb7" /></g><g
         id="g26"
         style="fill:#5d6fb7"><path
           d="M34,44H18c-0.6,0-1-0.4-1-1s0.4-1,1-1h16c0.6,0,1,0.4,1,1S34.6,44,34,44z"
           id="path24"
           style="fill:#5d6fb7" /></g></g></g></svg>